# xmcd CD database file
#
# Track frame offsets:
#	150
#	16133
#	33171
#	44193
#	60122
#
# Disc length: 836 seconds
#
# Revision: 0
# Processed by: cddbd v1.5PL3 Copyright (c) Steve Scherf et al.
# Submitted via: CDex 1.50
#
DISCID=33034205
DTITLE=Slow Fat - The Grande Royale
DYEAR=2003
DGENRE=Rhythmic Soul
TTITLE0=(I want to be a) Fool Tonight (pt. 1)
TTITLE1=Another Wasted Man
TTITLE2=The Greatest Gift
TTITLE3=The Golden Triangle
TTITLE4=(I want to be a) Fool Tonight (pt. 2)
EXTD=YEAR: 2003
EXTT0=
EXTT1=
EXTT2=
EXTT3=
EXTT4=
PLAYORDER=
